<svg width="1076" height="1080" viewBox="0 0 1076 1080" fill="none" xmlns="http://www.w3.org/2000/svg">
<g style="mix-blend-mode:soft-light" opacity="0.38">
<mask id="mask0_496_975" style="mask-type:alpha" maskUnits="userSpaceOnUse" x="0" y="-309" width="1076" height="1693">
<path d="M355.647 763.306C291.118 713.724 297.436 644.497 308.66 616.081L310.338 602.656L165.351 637.225L171.28 648.972C225.158 721.018 316.641 755.214 355.647 763.306Z" fill="url(#paint0_linear_496_975)"/>
<path d="M237.398 422.317C118.634 336.308 45.3119 247.459 23.4966 213.785C6.04432 447.152 101.472 592.14 170.162 649.196C328.485 581.177 400.733 623.539 415.948 651.88C449.152 749.702 326.785 851.808 265.59 895.429C74.8688 1031.38 -12.0792 1284.08 1.34566 1383.76L25.9578 1334.31L115.121 1197.04L441.679 909.301C529.499 831.922 662.136 654.588 490.12 564.284C275.1 451.404 385.854 529.827 237.398 422.317Z" fill="url(#paint1_linear_496_975)"/>
<path d="M567.76 344.456L42.5151 -88.0465L45.7595 57.5006C86.4813 98.4462 180.589 192.218 231.245 239.742C281.901 287.266 349.011 337.184 376.233 356.202L547.623 464.16C622.018 508.35 697.309 568.202 707.937 596.842C642.715 13.0869 923.107 -245.042 1075.55 -307.43C877.85 -269.393 720.952 -53.9624 667.215 48.9983L567.76 344.456Z" fill="#A3A3A3"/>
<path d="M205.961 -49.3409C115.679 -136.838 57.5426 -230.538 40.2769 -270.738L41.955 -68.5832C187.838 94.9308 464.351 296.907 583.086 376.337C669.788 -128.435 957.637 -277.003 1076 -308.999C867.378 -271.499 739.823 -142.42 684.555 -76.0787C619.221 2.34448 553.775 146.661 532.407 225.643C448.279 177.225 279.723 22.1461 205.961 -49.3409Z" fill="#D9D9D9"/>
<path d="M55.8294 136.146C49.654 124.869 36.5499 118.023 30.7698 116.009L22.1556 225.085C42.2555 286.802 143.202 424.891 406.216 541.463C669.23 658.035 520.998 827.918 400.287 909.526C304.971 973.965 112.773 1077.67 1.34717 1383.76C77.1972 1271.44 164.906 1165.38 271.857 1086.62L520.998 887.599C617.657 800.226 616.426 800.45 649.205 745.744C698.023 664.269 641.635 616.716 615.084 593.26C589.935 562.115 455.888 485.638 392.68 448.72C371.312 434.624 308.372 393.387 228.897 328.68C126.198 246.565 63.5487 150.242 55.8294 136.146Z" fill="url(#paint2_linear_496_975)"/>
</mask>
<g mask="url(#mask0_496_975)">
<rect x="0.122559" y="-307.422" width="1075.88" height="1689.59" fill="white"/>
</g>
</g>
<defs>
<linearGradient id="paint0_linear_496_975" x1="185.6" y1="633.31" x2="293.334" y2="732.653" gradientUnits="userSpaceOnUse">
<stop stop-color="#D9D9D9"/>
<stop offset="1" stop-color="#737373"/>
</linearGradient>
<linearGradient id="paint1_linear_496_975" x1="101.892" y1="964.428" x2="38.2638" y2="314.247" gradientUnits="userSpaceOnUse">
<stop stop-color="#D9D9D9"/>
<stop offset="1" stop-color="#737373"/>
</linearGradient>
<linearGradient id="paint2_linear_496_975" x1="79.5466" y1="174.631" x2="366.613" y2="1182.38" gradientUnits="userSpaceOnUse">
<stop stop-color="#D9D9D9"/>
<stop offset="1" stop-color="#737373"/>
</linearGradient>
</defs>
</svg>
